<svg version="1.0" id="Layer_1" xmlns="http://www.w3.org/2000/svg" xmlns:xlink="http://www.w3.org/1999/xlink" x="0px" y="0px" width="100px" height="100px" viewBox="0 0 100 100" enable-background="new 0 0 100 100" xml:space="preserve">
<path d="M76.667,16.667c-5.521,0-10,4.479-10,10v10c0,3.682-2.985,6.666-6.667,6.666V20c0-5.521-4.479-10-10-10s-10,4.479-10,10
	v36.667c-3.685,0-6.667-2.985-6.667-6.667V40c0-5.521-4.479-10-10-10c-5.521,0-10,4.479-10,10v10
	c0,14.727,11.934,26.667,26.667,26.667V90h20V63.333c14.727,0,26.667-11.934,26.667-26.666v-10
	C86.667,21.146,82.188,16.667,76.667,16.667z M80,36.667c0,11.028-8.972,20-20,20h-6.667v26.666h-6.666V70H40
	c-11.028,0-20-8.972-20-20V40c0-1.836,1.497-3.333,3.333-3.333s3.334,1.497,3.334,3.333v10c0,7.354,5.982,13.333,13.333,13.333
	h6.667V20c0-1.836,1.497-3.333,3.333-3.333s3.333,1.498,3.333,3.333v30H60c7.354,0,13.333-5.983,13.333-13.333v-10
	c0-1.836,1.494-3.334,3.334-3.334c1.839,0,3.333,1.498,3.333,3.334V36.667z" id="id_101" style="fill: rgb(3, 156, 44);"></path>
</svg>